<svg xmlns="http://www.w3.org/2000/svg" viewBox="0 0 164.4 21.87"><defs><style>.cls-1{fill:#036;}</style></defs><g id="Layer_2" data-name="Layer 2"><g id="Layer_3" data-name="Layer 3"><path class="cls-1" d="M3.66,23.58A8.88,8.88,0,0,1,1.2,16.92V13.17A8.88,8.88,0,0,1,3.66,6.51a9.42,9.42,0,0,1,6.87-2.4,9.42,9.42,0,0,1,6.87,2.4,8.88,8.88,0,0,1,2.46,6.66H15.09a5.29,5.29,0,0,0-1.2-3.69,4.31,4.31,0,0,0-3.36-1.32A4.31,4.31,0,0,0,7.17,9.48,5.29,5.29,0,0,0,6,13.17v3.75a5.29,5.29,0,0,0,1.2,3.69A4.4,4.4,0,0,0,10.53,22a4.16,4.16,0,0,0,3-1,4.89,4.89,0,0,0,1.32-3.07h-3.3V15.66h8.31q0,5.16-2.37,7.74t-7,2.58A9.42,9.42,0,0,1,3.66,23.58Z" transform="translate(-1.2 -4.11)"/><path class="cls-1" d="M21.51,4.5H32.7a6.39,6.39,0,0,1,5.07,2.08,8.52,8.52,0,0,1,1.83,5.81,9.71,9.71,0,0,1-.74,3.87A6.09,6.09,0,0,1,36.67,19a6.43,6.43,0,0,1-3.61,1l1.62-1.2L39.6,25.5H34.74L31,20.22H26.28V25.5H21.51ZM33.84,15.61a4.79,4.79,0,0,0,1-3.22,4.91,4.91,0,0,0-1-3.27A3.38,3.38,0,0,0,31.11,8H26.28v8.82h4.83A3.41,3.41,0,0,0,33.84,15.61Z" transform="translate(-1.2 -4.11)"/><path class="cls-1" d="M42.39,8.5a7.71,7.71,0,0,1,3.25-3.27,10.72,10.72,0,0,1,5.09-1.12,10.54,10.54,0,0,1,5,1.12A7.7,7.7,0,0,1,59,8.49a10.79,10.79,0,0,1,1.12,5.1V25.5H55.35V13.59a5.53,5.53,0,0,0-1.22-3.8,4.29,4.29,0,0,0-3.4-1.36,4.46,4.46,0,0,0-3.45,1.36A5.4,5.4,0,0,0,46,13.59V25.5H41.25V13.59A10.71,10.71,0,0,1,42.39,8.5ZM58,17.16v3.63H43.59V17.16Z" transform="translate(-1.2 -4.11)"/><path class="cls-1" d="M79.29,4.5V8.13H60.57V4.5Zm-7,0v21H67.56V4.5Z" transform="translate(-1.2 -4.11)"/><path class="cls-1" d="M85.71,4.5v21H80.94V4.5Z" transform="translate(-1.2 -4.11)"/><path class="cls-1" d="M106.08,4.5V8.13H87.36V4.5Zm-7,0v21H94.35V4.5Z" transform="translate(-1.2 -4.11)"/><path class="cls-1" d="M112.12,24.85a7.71,7.71,0,0,1-3.25-3.27,10.67,10.67,0,0,1-1.14-5.08V4.56h4.77V16.5a5.37,5.37,0,0,0,1.24,3.78,4.49,4.49,0,0,0,3.47,1.35,4.43,4.43,0,0,0,3.45-1.35,5.41,5.41,0,0,0,1.23-3.78V4.56h4.77V16.5a10.67,10.67,0,0,1-1.14,5.08,7.73,7.73,0,0,1-3.26,3.27,11.94,11.94,0,0,1-10.14,0Z" transform="translate(-1.2 -4.11)"/><path class="cls-1" d="M147,4.5V8.13H128.31V4.5Zm-7,0v21H135.3V4.5Z" transform="translate(-1.2 -4.11)"/><path class="cls-1" d="M153.45,4.5v21h-4.77V4.5Zm12,0V8H153.09V4.5Zm-.72,8.76v3.48H153.09V13.26Zm.9,8.79V25.5H153.09V22.05Z" transform="translate(-1.2 -4.11)"/></g></g></svg>