<svg xmlns="http://www.w3.org/2000/svg" viewBox="0 0 97.68 13.49"><defs><style>.cls-1{fill:#fff;}</style></defs><g id="Layer_2" data-name="Layer 2"><g id="Layer_3" data-name="Layer 3"><path class="cls-1" d="M2.26,14.54A5.48,5.48,0,0,1,.74,10.43V8.12A5.49,5.49,0,0,1,2.26,4,5.83,5.83,0,0,1,6.49,2.53,5.83,5.83,0,0,1,10.73,4a5.49,5.49,0,0,1,1.52,4.11H9.31a3.26,3.26,0,0,0-.74-2.27A2.66,2.66,0,0,0,6.49,5a2.65,2.65,0,0,0-2.07.82,3.26,3.26,0,0,0-.74,2.27v2.31a3.27,3.27,0,0,0,.74,2.28,2.73,2.73,0,0,0,2.07.83,2.54,2.54,0,0,0,1.85-.64A3,3,0,0,0,9.16,11h-2V9.66h5.13a6.86,6.86,0,0,1-1.46,4.77A5.56,5.56,0,0,1,6.49,16,5.78,5.78,0,0,1,2.26,14.54Z" transform="translate(-0.74 -2.53)"/><path class="cls-1" d="M12.8,2.77h6.9a3.94,3.94,0,0,1,3.13,1.29A5.26,5.26,0,0,1,24,7.64,5.89,5.89,0,0,1,23.5,10a3.75,3.75,0,0,1-1.35,1.66,3.94,3.94,0,0,1-2.23.63l1-.74,3,4.14H21l-2.31-3.25H15.74v3.25H12.8Zm7.61,6.86a3,3,0,0,0,.61-2,3.08,3.08,0,0,0-.61-2,2.1,2.1,0,0,0-1.69-.72h-3v5.44h3A2.12,2.12,0,0,0,20.41,9.63Z" transform="translate(-0.74 -2.53)"/><path class="cls-1" d="M25.22,5.24a4.68,4.68,0,0,1,2-2,6.65,6.65,0,0,1,3.14-.7,6.55,6.55,0,0,1,3.11.7,4.76,4.76,0,0,1,2,2,6.65,6.65,0,0,1,.69,3.14v7.34H33.21V8.38A3.39,3.39,0,0,0,32.46,6a2.67,2.67,0,0,0-2.1-.84A2.76,2.76,0,0,0,28.23,6a3.31,3.31,0,0,0-.78,2.34v7.34H24.51V8.38A6.61,6.61,0,0,1,25.22,5.24Zm9.6,5.34v2.24H26V10.58Z" transform="translate(-0.74 -2.53)"/><path class="cls-1" d="M47.51,2.77V5H36V2.77Zm-4.29,0v13H40.27V2.77Z" transform="translate(-0.74 -2.53)"/><path class="cls-1" d="M51,2.77v13H48.06V2.77Z" transform="translate(-0.74 -2.53)"/><path class="cls-1" d="M63.1,2.77V5H51.56V2.77Zm-4.29,0v13H55.87V2.77Z" transform="translate(-0.74 -2.53)"/><path class="cls-1" d="M66.37,15.33a4.83,4.83,0,0,1-2-2,6.59,6.59,0,0,1-.7-3.14V2.81H66.6v7.36a3.35,3.35,0,0,0,.77,2.34,2.76,2.76,0,0,0,2.13.83,2.73,2.73,0,0,0,2.13-.83,3.35,3.35,0,0,0,.76-2.34V2.81h2.94v7.36a6.59,6.59,0,0,1-.7,3.14,4.83,4.83,0,0,1-2,2,7.42,7.42,0,0,1-6.25,0Z" transform="translate(-0.74 -2.53)"/><path class="cls-1" d="M87.43,2.77V5H75.89V2.77Zm-4.29,0v13H80.2V2.77Z" transform="translate(-0.74 -2.53)"/><path class="cls-1" d="M90.93,2.77v13H88V2.77Zm7.38,0V4.9h-7.6V2.77Zm-.44,5.41v2.14H90.71V8.18Zm.55,5.42v2.12H90.71V13.6Z" transform="translate(-0.74 -2.53)"/></g></g></svg>